<svg id="SvgjsSvg1006" xmlns="http://www.w3.org/2000/svg" xmlns:xlink="http://www.w3.org/1999/xlink" viewBox="0 0 480.04 120.67"><defs><style>.cls-1{fill:url(#무제_그라디언트_2);}.cls-2{fill:#fff;}.cls-3{fill:#e273b2;}.cls-4{fill:url(#무제_그라디언트_201);}.cls-5{fill:url(#무제_그라디언트_223);}.cls-6{fill:url(#무제_그라디언트_201-2);}.cls-7{fill:#595959;}.cls-8{fill:#787878;}</style><linearGradient id="무제_그라디언트_2" x1="92.64" y1="98.12" x2="66.64" y2="53.09" gradientUnits="userSpaceOnUse"><stop offset="0" stop-color="#9a266b"/><stop offset="1" stop-color="#dd4d91"/></linearGradient><linearGradient id="무제_그라디언트_201" x1="19.71" y1="71.66" x2="65.93" y2="98.35" gradientUnits="userSpaceOnUse"><stop offset="0.02" stop-color="#db2b8f"/><stop offset="0.13" stop-color="#db2b8f"/><stop offset="1" stop-color="#c21f7c"/></linearGradient><linearGradient id="무제_그라디언트_223" x1="60.39" y1="50.46" x2="43.31" y2="3.54" gradientUnits="userSpaceOnUse"><stop offset="0.02" stop-color="#e470b3"/><stop offset="1" stop-color="#df66ac"/></linearGradient><linearGradient id="무제_그라디언트_201-2" x1="-13.32" y1="43.63" x2="29.57" y2="86.51" xlink:href="#무제_그라디언트_201"/></defs><title>QuantifiedESG_Logo_v3_Basic</title><polygon class="cls-1" points="53.05 120.67 53.05 101.86 89.78 80.88 89.78 39.77 106.11 30.31 106.11 90.35 53.05 120.67"/><path class="cls-2" d="M53.05,19.33"/><path class="cls-2" d="M53.05,19.33"/><polygon class="cls-3" points="32.65 49.25 48.97 58.72 69.49 46.98 53.05 37.59 32.65 49.25"/><polygon class="cls-4" points="32.65 49.25 48.97 58.72 48.97 99.54 53.05 101.86 53.05 120.67 32.65 109.01 32.65 49.25"/><polygon class="cls-5" points="89.78 39.77 53.05 18.8 16.33 39.77 0 30.31 53.05 0 106.11 30.31 89.78 39.77"/><polygon class="cls-6" points="16.33 39.77 0 30.31 0 90.45 16.33 99.75 16.33 39.77"/><path class="cls-7" d="M176.76,72a13.2,13.2,0,0,1-2.8,3.93l-.54.24A57.37,57.37,0,0,1,152.93,65a10.27,10.27,0,0,1-1.31.06q-8,0-12.27-5t-4.29-14.27q0-9.59,4.56-14.77t13-5.18q7.92,0,12.18,4.88t4.26,14.06A25.21,25.21,0,0,1,166.36,57a14.48,14.48,0,0,1-7.83,6.82,50.37,50.37,0,0,0,18,7.45ZM144,56.43q2.63,3.65,8.11,3.64,5.29,0,8-3.55t2.65-11q0-7.56-2.62-11.14t-8-3.57q-5.49,0-8.08,3.46t-2.59,10.84Q141.37,52.8,144,56.43Z"/><path class="cls-7" d="M198.59,49.82l-.06,4.41a9.62,9.62,0,0,1-3.22,7.86Q192,64.9,186,64.89T177,62.12q-3.09-2.76-3-7.89l0-4.59-.17-15h5.77l-.29,18.71q-.06,6.78,6.91,6.79a7.34,7.34,0,0,0,5.24-1.7,6.54,6.54,0,0,0,1.72-5.09L193,34.63h5.77Z"/><path class="cls-7" d="M229.11,64.48h-5.78l-.78-3.7-1.07-3.27-6.67-.06-6,.06-1.13,3-.83,4h-5.66l11.14-29.85H219ZM220,53l-4.23-13h-.41l-4.83,13,4.71.06Z"/><path class="cls-7" d="M259.27,55.36l.18,9.12h-6.2l-14.11-21h-.36l-.06,10.84.18,10.13h-5.18l.24-8.76-.18-21.09h6.07L254,55.6h.48l-.18-20.79,5.3-.3Z"/><path class="cls-7" d="M287,35.11l-.36,4.59-5.78-.42h-2.5L278.27,55l.18,9.48h-5.72l.24-8.94-.12-16.26h-2.44l-5.9.42-.41-.48.41-4.59h22.22Z"/><path class="cls-7" d="M297.06,55l.24,9.48h-5.72l.24-8.94-.24-20.91h5.78Z"/><path class="cls-7" d="M310.42,39.22l-.12,8.58,4.77.06,5.3-.18.41.47-.41,4.35-5.78-.12-4.35.06L310.18,55l.24,9.48H304.7l.24-8.94-.24-20.91h18.23l.36.48-.48,4.35-7.45-.3Z"/><path class="cls-7" d="M332.68,55l.24,9.48H327.2l.24-8.94-.24-20.91H333Z"/><path class="cls-7" d="M359.63,59.71l.41.42-.47,4.35H340.45l.23-8.94-.23-20.91h19.3l.35.48-.41,4.35-7.57-.3-6,.06L346.05,47l5.71.06,5.19-.18.29.48-.35,4.41-5.6-.18-5.3.06L345.93,55l.12,4.89,5.54.06Z"/><path class="cls-7" d="M387.53,38q3.66,3.63,3.66,10.42,0,7.92-4.05,12.12t-11.56,4.2q-5.65,0-10.84-.29l.24-8.94-.24-20.91L377,34.39Q383.87,34.39,387.53,38ZM383,57.68q2.27-2.61,2.26-7.92,0-5.53-2.14-8.07c-1.43-1.69-3.62-2.53-6.55-2.53-2.47,0-4.51.08-6.14.24L370.22,55l.12,4.89c3,.28,5,.42,6.2.42A8.1,8.1,0,0,0,383,57.68Z"/><path class="cls-7" d="M419.26,59.23l.35.54-.41,4.71H396.62L397,53l-.42-26.75h22.7l.35.54-.47,4.71-9.06-.24-7.26.06-.18,11.14,6.91.12,6.31-.18.42.47-.48,4.71-6.73-.18-6.49.12-.06,4.94.18,7,7.26.06Z"/><path class="cls-7" d="M445.55,27.72l-1,5.6-1,.36a17.2,17.2,0,0,0-3.93-2.14,10.76,10.76,0,0,0-3.87-.78,6.56,6.56,0,0,0-4.65,1.61,5,5,0,0,0-1.73,3.75,4.18,4.18,0,0,0,1.73,3.43,30.28,30.28,0,0,0,5.42,3.06,58.17,58.17,0,0,1,5.21,2.8,12,12,0,0,1,3.43,3.31,8.41,8.41,0,0,1,1.43,4.91,10.16,10.16,0,0,1-1.7,5.69,11.74,11.74,0,0,1-4.77,4.11,15.43,15.43,0,0,1-7,1.52,24.2,24.2,0,0,1-5.42-.65,24.61,24.61,0,0,1-5.3-1.91l.78-6.08L424,56a14.94,14.94,0,0,0,4.86,3.12,13.37,13.37,0,0,0,4.91,1.05,7.18,7.18,0,0,0,4.94-1.64,5,5,0,0,0,1.85-3.9,4.43,4.43,0,0,0-1.79-3.67,29.43,29.43,0,0,0-5.48-3.12,54.94,54.94,0,0,1-5.12-2.71,11.41,11.41,0,0,1-3.36-3.25A8.33,8.33,0,0,1,423.4,37a10.14,10.14,0,0,1,1.66-5.66,11.3,11.3,0,0,1,4.65-4,15.16,15.16,0,0,1,6.79-1.46A23.12,23.12,0,0,1,445.55,27.72Z"/><path class="cls-7" d="M480,28.38l-1.25,5.72-.65.06a25.62,25.62,0,0,0-5.31-2.48,16.8,16.8,0,0,0-5-.74q-6,0-8.87,3.6T456,45.89q0,7.39,2.74,10.69t8.69,3.31a16.11,16.11,0,0,0,2.95-.27c1-.18,2.2-.49,3.67-.92l.17-3.87-.17-5.9,5.77-.42-.12,5.36.18,8.76A43.57,43.57,0,0,1,467.12,65Q458.36,65,454,60.1t-4.35-13.91q0-9.88,5-15.13t14.2-5.24A24.89,24.89,0,0,1,480,28.38Z"/><path class="cls-8" d="M162.24,89h-5V102.9h-1.9V89h-5V87.4h11.86Z"/><path class="cls-8" d="M170.62,102a5.47,5.47,0,0,1-1.73.84,7.9,7.9,0,0,1-2.2.31,5.82,5.82,0,0,1-2.27-.41,4,4,0,0,1-1.57-1.18,5,5,0,0,1-.92-1.82,8.87,8.87,0,0,1-.29-2.4,6.31,6.31,0,0,1,1.3-4.31,4.69,4.69,0,0,1,3.72-1.49,7.53,7.53,0,0,1,1.56.17,3.52,3.52,0,0,1,1.39.63,3.37,3.37,0,0,1,1,1.32,5.61,5.61,0,0,1,.38,2.24,10.76,10.76,0,0,1-.13,1.62h-7.34a6.45,6.45,0,0,0,.21,1.73,3.17,3.17,0,0,0,.64,1.27,2.68,2.68,0,0,0,1.13.8,4.48,4.48,0,0,0,1.7.28,4.64,4.64,0,0,0,1.55-.27,3.33,3.33,0,0,0,1.17-.62Zm-3.93-8.91a3.22,3.22,0,0,0-2.16.69,3.41,3.41,0,0,0-1,2.35h5.67a3.33,3.33,0,0,0-.66-2.36A2.51,2.51,0,0,0,166.69,93.11Z"/><path class="cls-8" d="M181.51,102.17a5,5,0,0,1-1.62.74,7.49,7.49,0,0,1-2,.26,5.53,5.53,0,0,1-2.24-.41,3.77,3.77,0,0,1-1.49-1.18,5,5,0,0,1-.85-1.83,10.36,10.36,0,0,1-.26-2.39,6.38,6.38,0,0,1,1.28-4.3,4.57,4.57,0,0,1,3.68-1.5,8.94,8.94,0,0,1,1.86.17,6,6,0,0,1,1.38.47l-.52,1.53a5.08,5.08,0,0,0-1.17-.45,5.47,5.47,0,0,0-1.37-.17q-3.24,0-3.24,4.25a7,7,0,0,0,.17,1.61,3.72,3.72,0,0,0,.57,1.35,2.81,2.81,0,0,0,1.05.94,3.28,3.28,0,0,0,1.61.36,4,4,0,0,0,1.47-.25,4.1,4.1,0,0,0,1.07-.55Z"/><path class="cls-8" d="M191,102.9V96.59a9.76,9.76,0,0,0-.1-1.52,2.86,2.86,0,0,0-.38-1.08,1.75,1.75,0,0,0-.74-.66,3,3,0,0,0-1.22-.22,3.11,3.11,0,0,0-1.95.68,3,3,0,0,0-1.12,1.74v7.37h-1.82V87.4h1.82v5.67h.1a4.38,4.38,0,0,1,1.42-1.1,4.74,4.74,0,0,1,2.07-.41,5.9,5.9,0,0,1,1.67.21,2.56,2.56,0,0,1,1.18.74,3.29,3.29,0,0,1,.68,1.43,9.62,9.62,0,0,1,.22,2.27v6.69Z"/><path class="cls-8" d="M203.26,102.9V96.59a5.26,5.26,0,0,0-.51-2.6,2,2,0,0,0-1.89-.88,3.11,3.11,0,0,0-2,.63,3.44,3.44,0,0,0-1.11,1.59v7.57h-1.82V91.83h1.28l.34,1.35h.09A4.19,4.19,0,0,1,199.11,92a4.9,4.9,0,0,1,2.21-.46,5.78,5.78,0,0,1,1.64.21,2.46,2.46,0,0,1,1.18.74,3.55,3.55,0,0,1,.71,1.43,9,9,0,0,1,.24,2.27v6.69Z"/><path class="cls-8" d="M207.62,97.36a6.38,6.38,0,0,1,1.29-4.3,4.64,4.64,0,0,1,3.72-1.5,5.69,5.69,0,0,1,2.23.41,4,4,0,0,1,1.56,1.18,4.84,4.84,0,0,1,.91,1.83,8.86,8.86,0,0,1,.3,2.38,6.39,6.39,0,0,1-1.29,4.31,4.63,4.63,0,0,1-3.71,1.5,5.62,5.62,0,0,1-2.23-.41,4.1,4.1,0,0,1-1.57-1.18,5.07,5.07,0,0,1-.91-1.83A8.88,8.88,0,0,1,207.62,97.36Zm1.9,0a7.74,7.74,0,0,0,.17,1.62,4.11,4.11,0,0,0,.54,1.35,2.72,2.72,0,0,0,2.4,1.29q3.1,0,3.1-4.26a7.15,7.15,0,0,0-.17-1.63,4.24,4.24,0,0,0-.53-1.36,2.79,2.79,0,0,0-1-.91,2.84,2.84,0,0,0-1.44-.35C210.56,93.1,209.52,94.51,209.52,97.36Z"/><path class="cls-8" d="M222.14,100.18a1.81,1.81,0,0,0,.28,1.11,1,1,0,0,0,.78.33,5.12,5.12,0,0,0,.64-.05,3.51,3.51,0,0,0,.77-.2l.21,1.4a4.1,4.1,0,0,1-1,.29,7.25,7.25,0,0,1-1.13.11,2.49,2.49,0,0,1-1.69-.57,2.38,2.38,0,0,1-.66-1.91V87.4h1.82Z"/><path class="cls-8" d="M225.91,97.36a6.33,6.33,0,0,1,1.3-4.3,4.62,4.62,0,0,1,3.71-1.5,5.69,5.69,0,0,1,2.23.41,4,4,0,0,1,1.56,1.18,5,5,0,0,1,.92,1.83,9.29,9.29,0,0,1,.29,2.38,6.39,6.39,0,0,1-1.29,4.31,4.63,4.63,0,0,1-3.71,1.5,5.65,5.65,0,0,1-2.23-.41,4,4,0,0,1-1.56-1.18,4.93,4.93,0,0,1-.92-1.83A8.88,8.88,0,0,1,225.91,97.36Zm1.9,0A7.74,7.74,0,0,0,228,99a4.33,4.33,0,0,0,.54,1.35,2.72,2.72,0,0,0,2.4,1.29q3.11,0,3.11-4.26a7.14,7.14,0,0,0-.18-1.63,4.24,4.24,0,0,0-.53-1.36,2.79,2.79,0,0,0-1-.91,2.84,2.84,0,0,0-1.44-.35C228.85,93.1,227.81,94.51,227.81,97.36Z"/><path class="cls-8" d="M247.4,103.41a4,4,0,0,1-1.18,3.17,5.16,5.16,0,0,1-3.48,1,11.79,11.79,0,0,1-2.21-.17,6.46,6.46,0,0,1-1.42-.43l.48-1.51a11.3,11.3,0,0,0,1.16.38,6.34,6.34,0,0,0,1.67.18,6,6,0,0,0,1.56-.17,2,2,0,0,0,1-.55,2.1,2.1,0,0,0,.5-1,6.79,6.79,0,0,0,.14-1.45v-1.06h-.1a3,3,0,0,1-1.16,1,4.24,4.24,0,0,1-1.85.35,4.05,4.05,0,0,1-3.4-1.4A7.09,7.09,0,0,1,238,97.41a6,6,0,0,1,1.39-4.31,5.41,5.41,0,0,1,4.12-1.47,10.2,10.2,0,0,1,2.22.2,11.92,11.92,0,0,1,1.66.46Zm-4.59-1.81a2.75,2.75,0,0,0,1.83-.57,3.15,3.15,0,0,0,.93-1.76V93.6a5.58,5.58,0,0,0-2.33-.42,3.07,3.07,0,0,0-2.44,1,4.73,4.73,0,0,0-.89,3.19,8.12,8.12,0,0,0,.16,1.7,3.88,3.88,0,0,0,.5,1.33,2.47,2.47,0,0,0,.89.87A2.75,2.75,0,0,0,242.81,101.6Z"/><path class="cls-8" d="M254.19,99l.64,2.13h.11l.51-2.15,2.22-7.15h1.83l-3.38,9.94c-.26.73-.52,1.43-.77,2.11a12.24,12.24,0,0,1-.83,1.81,4.85,4.85,0,0,1-1,1.28,2,2,0,0,1-1.33.47,3.44,3.44,0,0,1-1.34-.22l.32-1.53a1.44,1.44,0,0,0,.57.11,1.68,1.68,0,0,0,1.23-.65,5.22,5.22,0,0,0,1-2.25l-4.59-11.07h2.1Z"/><path class="cls-8" d="M260.69,95.7h5.53v1.64h-5.53Z"/><path class="cls-8" d="M269.18,87.4a8.31,8.31,0,0,1,1-.1l1.12,0,1.14,0h1a8.57,8.57,0,0,1,3.32.58,6.06,6.06,0,0,1,2.32,1.6,6.53,6.53,0,0,1,1.36,2.47A10.6,10.6,0,0,1,280.9,95a10.4,10.4,0,0,1-.43,3,7.07,7.07,0,0,1-1.33,2.57,6.5,6.5,0,0,1-2.38,1.8,8.38,8.38,0,0,1-3.54.67h-1l-1.2,0-1.14-.06a4.73,4.73,0,0,1-.75-.07Zm4.31,1.46h-.65l-.69,0-.63.05-.45,0v12.4a2.72,2.72,0,0,0,.44,0l.66,0,.66,0h.44a6,6,0,0,0,2.68-.53,4.63,4.63,0,0,0,1.74-1.43,5.68,5.68,0,0,0,.92-2.06,10,10,0,0,0,.28-2.4,10.2,10.2,0,0,0-.25-2.18,5.83,5.83,0,0,0-.87-2,4.79,4.79,0,0,0-1.66-1.45A5.5,5.5,0,0,0,273.49,88.86Z"/><path class="cls-8" d="M289.07,93.53a4.43,4.43,0,0,0-1.3-.22,2.2,2.2,0,0,0-1.55.52,2.26,2.26,0,0,0-.71,1.32v7.75h-1.83V91.83H285l.34,1.35h.09a3.47,3.47,0,0,1,1-1.16,2.67,2.67,0,0,1,1.55-.41,5.65,5.65,0,0,1,1.48.22Z"/><path class="cls-8" d="M291.21,88.46a1.22,1.22,0,0,1,.35-.87,1.2,1.2,0,0,1,.91-.37,1.29,1.29,0,0,1,.93.37,1.14,1.14,0,0,1,.39.87,1.05,1.05,0,0,1-.39.84,1.39,1.39,0,0,1-.93.33,1.29,1.29,0,0,1-.91-.33A1.12,1.12,0,0,1,291.21,88.46Zm.39,3.37h1.83V102.9H291.6Z"/><path class="cls-8" d="M300.41,98.32l.64,2.1h0l.57-2.15,2.56-6.44h2l-4.86,11.32h-.78l-5-11.32h2.1Z"/><path class="cls-8" d="M316.05,102a5.31,5.31,0,0,1-1.72.84,7.92,7.92,0,0,1-2.21.31,5.81,5.81,0,0,1-2.26-.41,4,4,0,0,1-1.57-1.18,4.89,4.89,0,0,1-.92-1.82,8.85,8.85,0,0,1-.3-2.4,6.31,6.31,0,0,1,1.31-4.31,4.69,4.69,0,0,1,3.72-1.49,7.53,7.53,0,0,1,1.56.17,3.52,3.52,0,0,1,1.39.63,3.26,3.26,0,0,1,1,1.32,5.42,5.42,0,0,1,.39,2.24,10.76,10.76,0,0,1-.13,1.62H309a6.45,6.45,0,0,0,.21,1.73,3.17,3.17,0,0,0,.64,1.27,2.68,2.68,0,0,0,1.13.8,4.48,4.48,0,0,0,1.7.28,4.64,4.64,0,0,0,1.55-.27,3.33,3.33,0,0,0,1.17-.62Zm-3.93-8.91a3.25,3.25,0,0,0-2.16.69,3.41,3.41,0,0,0-1,2.35h5.67a3.33,3.33,0,0,0-.66-2.36A2.52,2.52,0,0,0,312.12,93.11Z"/><path class="cls-8" d="M326.37,102.9V96.59a5.26,5.26,0,0,0-.51-2.6,2,2,0,0,0-1.89-.88,3.11,3.11,0,0,0-2,.63,3.44,3.44,0,0,0-1.11,1.59v7.57H319V91.83h1.28l.34,1.35h.09A4.19,4.19,0,0,1,322.22,92a4.9,4.9,0,0,1,2.21-.46,5.78,5.78,0,0,1,1.64.21,2.46,2.46,0,0,1,1.18.74,3.55,3.55,0,0,1,.71,1.43,9,9,0,0,1,.24,2.27v6.69Z"/><path class="cls-8" d="M345.63,99a2.09,2.09,0,0,0-.57-1.52,5.5,5.5,0,0,0-1.43-1,17.89,17.89,0,0,0-1.86-.85,10.23,10.23,0,0,1-1.86-1,5.12,5.12,0,0,1-1.43-1.39,3.66,3.66,0,0,1-.57-2.12,3.52,3.52,0,0,1,1.3-2.88,5.76,5.76,0,0,1,3.7-1.06,15.13,15.13,0,0,1,2.54.2,6.63,6.63,0,0,1,1.78.51l-.57,1.64a7.26,7.26,0,0,0-1.54-.48,10.66,10.66,0,0,0-2.3-.23,3.4,3.4,0,0,0-2.26.65,2,2,0,0,0-.75,1.54,2,2,0,0,0,.57,1.44,5.47,5.47,0,0,0,1.43,1c.57.31,1.19.6,1.86.9a11.87,11.87,0,0,1,1.86,1A5.48,5.48,0,0,1,347,96.77a3.45,3.45,0,0,1,.57,2,4.17,4.17,0,0,1-.37,1.8,3.73,3.73,0,0,1-1.07,1.37,5,5,0,0,1-1.71.89,8,8,0,0,1-2.29.31,13,13,0,0,1-2.83-.26,7.73,7.73,0,0,1-1.74-.56l.64-1.64a7.32,7.32,0,0,0,1.56.55,9,9,0,0,0,2.3.27,6.38,6.38,0,0,0,1.42-.15,3.25,3.25,0,0,0,1.14-.46,2.39,2.39,0,0,0,.77-.81A2.23,2.23,0,0,0,345.63,99Z"/><path class="cls-8" d="M351.71,91.83v6.31a9.76,9.76,0,0,0,.1,1.52,3.34,3.34,0,0,0,.35,1.08,1.69,1.69,0,0,0,.69.66,2.5,2.5,0,0,0,1.1.22,3.07,3.07,0,0,0,1.09-.19,3,3,0,0,0,.86-.52,3.78,3.78,0,0,0,.66-.77,4.36,4.36,0,0,0,.47-.91v-7.4h1.83v7.93q0,.8.06,1.65a9.71,9.71,0,0,0,.19,1.49h-1.26l-.45-1.75h-.12a4.41,4.41,0,0,1-1.41,1.44,4.07,4.07,0,0,1-2.27.58A5.61,5.61,0,0,1,352,103a2.5,2.5,0,0,1-1.16-.74,3.49,3.49,0,0,1-.71-1.43,9,9,0,0,1-.24-2.27V91.83Z"/><path class="cls-8" d="M367.14,99.89a1.36,1.36,0,0,0-.41-1,3.67,3.67,0,0,0-1-.63c-.4-.17-.85-.33-1.33-.49a5.67,5.67,0,0,1-1.32-.6,3.39,3.39,0,0,1-1-.94,2.64,2.64,0,0,1-.41-1.55,2.8,2.8,0,0,1,.94-2.34,4.1,4.1,0,0,1,2.6-.74,8.68,8.68,0,0,1,2.07.21,8.14,8.14,0,0,1,1.45.5l-.43,1.46A8.15,8.15,0,0,0,367,93.3a6.3,6.3,0,0,0-1.59-.19,2.58,2.58,0,0,0-1.47.33,1.32,1.32,0,0,0-.47,1.16,1.07,1.07,0,0,0,.41.89,4.08,4.08,0,0,0,1,.58c.4.17.84.33,1.32.5a5.63,5.63,0,0,1,1.33.64,3.6,3.6,0,0,1,1,1,2.75,2.75,0,0,1,.42,1.6,3.61,3.61,0,0,1-.24,1.33,2.67,2.67,0,0,1-.75,1.07,3.7,3.7,0,0,1-1.24.69,5.42,5.42,0,0,1-1.75.26,8.38,8.38,0,0,1-2.22-.25,7,7,0,0,1-1.53-.57l.55-1.51a6.89,6.89,0,0,0,1.37.53,5.92,5.92,0,0,0,1.72.25,3.18,3.18,0,0,0,1.62-.38A1.44,1.44,0,0,0,367.14,99.89Z"/><path class="cls-8" d="M370.45,91.83h1.78v-2.2l1.83-.51v2.71h3.1v1.55h-3.1v6.13a3.37,3.37,0,0,0,.29,1.63,1.1,1.1,0,0,0,1,.48,3.6,3.6,0,0,0,1-.12c.28-.09.58-.19.92-.33l.41,1.36a7.38,7.38,0,0,1-1.35.46,6.59,6.59,0,0,1-1.58.18,2.3,2.3,0,0,1-2-.77,4.36,4.36,0,0,1-.57-2.55V93.38h-1.78Z"/><path class="cls-8" d="M379.7,92.65a6.9,6.9,0,0,1,2-.76,11.89,11.89,0,0,1,2.42-.24A4.8,4.8,0,0,1,386,92a2.56,2.56,0,0,1,1.6,1.9,5.44,5.44,0,0,1,.13,1.2c0,.89,0,1.75-.07,2.59s-.07,1.64-.07,2.39a15.44,15.44,0,0,0,.07,1.56A7.89,7.89,0,0,0,388,103H386.6l-.48-1.55H386a4,4,0,0,1-.52.61,3.6,3.6,0,0,1-.74.53,4.85,4.85,0,0,1-1,.38,4.75,4.75,0,0,1-1.31.16,4,4,0,0,1-1.36-.22,3.3,3.3,0,0,1-1.08-.63,2.84,2.84,0,0,1-.72-1,3,3,0,0,1-.26-1.31,2.91,2.91,0,0,1,.41-1.62,2.83,2.83,0,0,1,1.15-1,5.82,5.82,0,0,1,1.78-.56,14.83,14.83,0,0,1,2.3-.16h.63a4.64,4.64,0,0,1,.63,0c0-.44.07-.84.07-1.2a2.29,2.29,0,0,0-.51-1.7,2.58,2.58,0,0,0-1.82-.49,6.38,6.38,0,0,0-.84.06c-.3,0-.6.09-.91.16a7.18,7.18,0,0,0-.89.25,4.81,4.81,0,0,0-.75.33Zm3.25,8.88a3.69,3.69,0,0,0,1.14-.17,3.52,3.52,0,0,0,.87-.42,3,3,0,0,0,.6-.56,2.8,2.8,0,0,0,.36-.6V97.94c-.22,0-.43,0-.65,0h-.66a12.5,12.5,0,0,0-1.38.07,4.94,4.94,0,0,0-1.19.29,2.07,2.07,0,0,0-.82.58,1.4,1.4,0,0,0-.31.92,1.62,1.62,0,0,0,.57,1.27A2.18,2.18,0,0,0,383,101.53Z"/><path class="cls-8" d="M390.63,88.46a1.18,1.18,0,0,1,.35-.87,1.19,1.19,0,0,1,.9-.37,1.3,1.3,0,0,1,.94.37,1.14,1.14,0,0,1,.39.87,1.05,1.05,0,0,1-.39.84,1.4,1.4,0,0,1-.94.33,1.28,1.28,0,0,1-.9-.33A1.08,1.08,0,0,1,390.63,88.46Zm.38,3.37h1.83V102.9H391Z"/><path class="cls-8" d="M403.54,102.9V96.59A5.14,5.14,0,0,0,403,94a2,2,0,0,0-1.88-.88,3.09,3.09,0,0,0-2,.63A3.3,3.3,0,0,0,398,95.33v7.57H396.2V91.83h1.28l.34,1.35h.1A4,4,0,0,1,399.39,92a4.86,4.86,0,0,1,2.2-.46,5.8,5.8,0,0,1,1.65.21,2.56,2.56,0,0,1,1.18.74,3.55,3.55,0,0,1,.7,1.43,9,9,0,0,1,.24,2.27v6.69Z"/><path class="cls-8" d="M408.23,92.65a6.79,6.79,0,0,1,2-.76,11.8,11.8,0,0,1,2.41-.24,4.85,4.85,0,0,1,1.91.31,2.67,2.67,0,0,1,1.09.81,2.87,2.87,0,0,1,.51,1.09,6.11,6.11,0,0,1,.12,1.2c0,.89,0,1.75-.07,2.59s-.07,1.64-.07,2.39c0,.55,0,1.07.07,1.56a7.89,7.89,0,0,0,.25,1.35h-1.34l-.48-1.55h-.12a4.58,4.58,0,0,1-.51.61,4.25,4.25,0,0,1-.74.53,5,5,0,0,1-1,.38,4.72,4.72,0,0,1-1.3.16,4,4,0,0,1-1.36-.22,3.35,3.35,0,0,1-1.09-.63,3.12,3.12,0,0,1-.72-1,3.19,3.19,0,0,1-.26-1.31,3,3,0,0,1,.41-1.62,2.86,2.86,0,0,1,1.16-1,5.65,5.65,0,0,1,1.78-.56,14.7,14.7,0,0,1,2.29-.16h.63a4.44,4.44,0,0,1,.63,0,10.62,10.62,0,0,0,.07-1.2,2.33,2.33,0,0,0-.5-1.7,2.62,2.62,0,0,0-1.83-.49,6.38,6.38,0,0,0-.84.06c-.29,0-.6.09-.91.16a7.7,7.7,0,0,0-.89.25,4.67,4.67,0,0,0-.74.33Zm3.24,8.88a3.6,3.6,0,0,0,1.14-.17,3.2,3.2,0,0,0,.87-.42,3,3,0,0,0,.61-.56,2.73,2.73,0,0,0,.35-.6V97.94c-.21,0-.43,0-.65,0h-.65a12.38,12.38,0,0,0-1.38.07,4.82,4.82,0,0,0-1.19.29,1.94,1.94,0,0,0-.82.58,1.35,1.35,0,0,0-.31.92A1.62,1.62,0,0,0,410,101,2.16,2.16,0,0,0,411.47,101.53Z"/><path class="cls-8" d="M419.36,87.4h1.83v5.51h.09a3.43,3.43,0,0,1,1.34-1,4.31,4.31,0,0,1,1.77-.36,4,4,0,0,1,3.32,1.37,6.74,6.74,0,0,1,1.11,4.26,6.13,6.13,0,0,1-1.46,4.41,5.5,5.5,0,0,1-4.12,1.5,9.66,9.66,0,0,1-2.31-.26,6.15,6.15,0,0,1-1.57-.58Zm4.71,5.71a2.72,2.72,0,0,0-1.85.62,3.5,3.5,0,0,0-1,1.75v5.58a3.32,3.32,0,0,0,1.05.37,6.7,6.7,0,0,0,1.28.12,3.13,3.13,0,0,0,2.48-1.06,5,5,0,0,0,.92-3.32,7.54,7.54,0,0,0-.16-1.62,3.74,3.74,0,0,0-.5-1.29,2.62,2.62,0,0,0-.88-.84A2.67,2.67,0,0,0,424.07,93.11Z"/><path class="cls-8" d="M431.19,88.46a1.25,1.25,0,0,1,1.26-1.24,1.3,1.3,0,0,1,.94.37,1.14,1.14,0,0,1,.39.87,1.05,1.05,0,0,1-.39.84,1.4,1.4,0,0,1-.94.33,1.26,1.26,0,0,1-.9-.33A1.09,1.09,0,0,1,431.19,88.46Zm.39,3.37h1.83V102.9h-1.83Z"/><path class="cls-8" d="M438.66,100.18a1.81,1.81,0,0,0,.27,1.11,1,1,0,0,0,.78.33,5,5,0,0,0,.64-.05,3.45,3.45,0,0,0,.78-.2l.2,1.4a4,4,0,0,1-1,.29,7.48,7.48,0,0,1-1.14.11,2.52,2.52,0,0,1-1.69-.57,2.38,2.38,0,0,1-.66-1.91V87.4h1.83Z"/><path class="cls-8" d="M443.08,88.46a1.19,1.19,0,0,1,.36-.87,1.16,1.16,0,0,1,.9-.37,1.31,1.31,0,0,1,.94.37,1.17,1.17,0,0,1,.38.87,1.07,1.07,0,0,1-.38.84,1.42,1.42,0,0,1-.94.33,1.25,1.25,0,0,1-.9-.33A1.09,1.09,0,0,1,443.08,88.46Zm.39,3.37h1.83V102.9h-1.83Z"/><path class="cls-8" d="M447.46,91.83h1.78v-2.2l1.83-.51v2.71h3.1v1.55h-3.1v6.13a3.37,3.37,0,0,0,.29,1.63,1.1,1.1,0,0,0,1,.48,3.6,3.6,0,0,0,1-.12c.28-.09.58-.19.92-.33l.41,1.36a7.38,7.38,0,0,1-1.35.46,6.59,6.59,0,0,1-1.58.18,2.3,2.3,0,0,1-2-.77,4.36,4.36,0,0,1-.57-2.55V93.38h-1.78Z"/><path class="cls-8" d="M460.57,99l.64,2.13h.11l.51-2.15,2.22-7.15h1.83l-3.38,9.94c-.26.73-.51,1.43-.77,2.11a11.29,11.29,0,0,1-.83,1.81,4.66,4.66,0,0,1-1,1.28,2,2,0,0,1-1.32.47,3.46,3.46,0,0,1-1.35-.22l.32-1.53a1.51,1.51,0,0,0,.57.11,1.65,1.65,0,0,0,1.23-.65,5.22,5.22,0,0,0,1-2.25l-4.6-11.07h2.11Z"/></svg>