<svg xmlns="http://www.w3.org/2000/svg" xml:space="preserve" width="1000px" height="193px" x="0px" y="0px" viewBox="0 0 1000 193"><g fill="#42B049"><path d="M760.901 132.811c.204-1.228.324-2.529.408-3.919.114-2.613-.005-4.589-.073-5.373-3.867.941-15.364 3.658-34.126 5.383-1.829.157-3.527.262-5.101.262-10.211-.031-14.758-4.061-12.84-15.046.491-2.785 1.531-8.648 2.749-15.683l.067-.408h31.633l3.585-20.328h-31.658l.073-.408c2.294-13.086 4.279-24.457 4.279-24.488l.079-.408h42.346l3.574-20.323h-66.171l-15.171 86.045c-4.583 26.146 12.84 30.687 29.14 30.739 1.813 0 3.601-.053 5.357-.136 9.887-.544 18.604-1.448 27.195-3.24 10.004-2.175 13.469-6.22 14.655-12.669zM569.35 131.321c-10.98-.026-16.65-4.646-14.424-17.366 1.003-5.686 1.62-9.208 2.007-11.335.365-2.121.501-2.827.501-2.827.283-1.662.377-2.394.377-2.394l.052-.429h31.377c21.071-.063 26.83-11.716 28.722-22.012l7.547-42.889h-78.975l-3.602 20.396h54.894l-3.585 20.36c-.392 2.205-1.207 5.121-6.067 5.121h-50.812l-7.447 42.195c-4.4 25 13.091 31.271 30.687 31.324.628 0 1.271-.011 1.918-.026 19.467-.518 37.794-2.106 53.227-5.514 6.24-1.4 9.731-3.611 11.863-6.626l.737.178-4.521 25.68c-1.828 10.803 1.035 16.305 11.419 16.363h9.804L672.29 26.99h-24.112c-.898 5.116-10.112 57.428-16.984 96.388l-.063.318-.324.073c-14.215 3.376-31.664 6.522-59.858 7.515-.554.022-1.098.037-1.599.037z"/><path d="M755.236 97.802h19.055l-11.874 67.357c-1.829 10.803 1.035 16.305 11.414 16.363h8.377L809.456 26.99H786.77c-.554 3.203-4.38 24.901-8.853 50.258l-.074.408H758.79l-3.554 20.146zM809.211 181.522h9.793L846.247 26.99h-24.112c-1.375 7.876-22.493 127.592-24.358 138.169-1.836 10.803 1.039 16.305 11.434 16.363zM896.338 105.641c29.537-.036 46.49-15.4 51.068-41.123 4.504-25.753-7.045-41.076-36.566-41.133-29.03.057-46.141 15.39-50.733 41.133-4.469 25.707 7.216 41.086 36.231 41.123zm10.953-62.111c14.477.021 19.922 8.095 17.664 20.987-2.283 12.866-10.557 20.778-25.032 20.805-13.917-.026-19.394-7.959-17.146-20.805 2.252-12.73 10.577-20.965 24.514-20.987zM894.947 165.468l.644-3.465h56.806c19.969-.073 25.289-7.886 27.447-19.634l4.907-27.828h-104.63l-3.37 19.189h80.866l-.072.418-.753 4.285c-.481 2.665-1.469 5.273-5.54 5.289H874.88l-3.083 17.465c-4.229 24.321 7.771 31.403 28.973 31.466h58.379c10.803-.063 16.969-3.914 18.861-14.299l.861-4.922h-73.503c-7.786-.01-11.33-2.686-10.421-7.964zM976.535 104.611h9.783L1000 26.99h-24.107c-.842 4.818-8.973 50.927-10.791 61.259-1.851 10.833 1.039 16.3 11.433 16.362z"/></g><path fill="#42B049" fill-rule="evenodd" d="M163.652 10.131c-9.308-5.722-20.438-8.388-39.236-8.388H77.711c-32.714 0-48.665 17.068-54.71 47.724C13.798 96.125 1.903 155.518.639 161.981c-3.052 15.396 5.043 20.643 19.775 20.643h63.015c28.048 0 44.65-4.279 57.183-12.071 22.717-12.657 27.258-38.516 27.258-38.516 7.416-36.989-28.962-42.455-28.962-42.455s31.628-6.507 38.265-41.542c-.001 0 5.617-26.093-13.521-37.909zm-46.636 114.417c-.998 6.058-5.712 13.797-21.776 13.797H59.191l5.676-28.518h33.227c7.806 0 21.279.136 18.922 14.721zm6.172-67.096c-1.421 10.223-8.999 13.253-25.445 13.253H72.549s1.657-9.709 2.712-15.103c1.082-5.414 4.071-9.939 12.036-9.939h22.409c2.1 0 15.211-.533 13.482 11.789zm196.141 15.626-26.422.016c-22.284 0-26.757 15.255-28.795 25.612-.763 3.992-2.885 13.838-2.885 13.838h33.687c-5.289 23.172-21.427 27.243-32.15 27.243-7.781 0-28.832 2.577-27.928-25.366.167-5.509 3.407-29.475 10.525-42.994 9.219-17.528 21.463-25.634 46.783-26.705 13.545-.554 26.851 1.04 26.851 1.04 15.939 1.704 22.618-9.704 22.618-9.704 6.731-9.872 11.314-24.918 11.314-24.918s-5.953-2.895-16.572-5.994C319.972.438 297.338.37 297.338.37c-49.49-.914-77.271 25.754-77.271 25.754-27.081 23.537-33.666 62.946-33.666 62.946-14.56 57.574 15.365 79.341 15.365 79.341 20.245 17.727 55.353 15.804 55.353 15.804 40.083 0 61.708-21.594 61.708-21.594 22.272-20.967 26.412-49.47 27.755-56.974 3.517-19.671-4.771-32.569-27.253-32.569zM456.845 1.514c-47.823 0-77.674 18.187-88.319 71.538 0 0-18.176 91.329-18.275 91.94-.737 6.109.329 10.274 2.639 12.971v.021c.366.413.742.784 1.14 1.119 2.916 2.498 7.139 3.407 11.936 3.407h33.248l12.406-59.821.444-2.395h40.956c20.658 0 36.854-7.739 41.755-26.73 2.634-10.185 3.068-18.385 3.068-18.385s-31.246-3.25-52.662-1.076c-12.5 1.27-21.197 3.752-26.579 12.349l2.738-13.357c5.017-21.558 20.225-27.677 36.613-27.677h27.394c16.437 0 26.783-5.749 29.835-20.533 2.493-11.982 4.489-23.37 4.489-23.37h-62.826z" clip-rule="evenodd"/></svg>