<svg id="그룹_168725" data-name="그룹 168725" xmlns="http://www.w3.org/2000/svg" xmlns:xlink="http://www.w3.org/1999/xlink" width="238" height="82" viewBox="0 0 238 82">
  <defs>
    <clipPath id="clip-path">
      <rect id="사각형_153745" data-name="사각형 153745" width="238" height="82" fill="none"/>
    </clipPath>
  </defs>
  <g id="그룹_168724" data-name="그룹 168724" clip-path="url(#clip-path)">
    <path id="패스_84397" data-name="패스 84397" d="M150.48,73.638H137.849v.327A12.226,12.226,0,0,1,136.8,78.3s-11.233,28.671-11.661,29.779c-.462-1.089-13.212-31-13.212-31l-.213-.477a6.653,6.653,0,0,1-.773-2.64v-.26l-.249-.067H96.973v.633l.161.078c2.607.949,2.988,4.419,2.988,6.408l-.005,29.989c0,3.478-.376,7.362-3.185,9.831l-.083.088v.571h12.167v-.627l-.153-.075c-2.661-1.183-2.884-4.193-2.884-7.061v-.877l.005-.845S106,84.5,106,82.217c.887,2.126,13.108,31.14,13.108,31.14,1.781,4.124,2.845,6.068,6.383,8.755l.264.2s14.758-37.74,15.668-40.08c0,2.458-.011,33.163-.011,33.163,0,2.217-.337,4.37-2.749,5.135l-.182.052v.651h13.679v-.6l-.109-.078a7.866,7.866,0,0,1-3.545-7.088V78.319c0-.786.153-3.421,2.046-3.971l.176-.062v-.648Z" transform="translate(-55.574 -42.259)"/>
    <path id="패스_84398" data-name="패스 84398" d="M235.159,95.639a23.776,23.776,0,0,1,41.015-16.382,26.708,26.708,0,1,0-13.772,39.9,23.255,23.255,0,0,1-3.44.277,23.792,23.792,0,0,1-23.8-23.791" transform="translate(-130.362 -38.571)" fill="#cc1424"/>
    <path id="패스_84399" data-name="패스 84399" d="M279.022,84.82A20.8,20.8,0,0,0,259.29,94.858a18.134,18.134,0,1,1,12.066,29.9,17.739,17.739,0,0,1-3.973-.835,20.808,20.808,0,1,0,11.64-39.1" transform="translate(-148.786 -48.625)" fill="#cc1424"/>
    <path id="패스_84400" data-name="패스 84400" d="M375.878,93.513c4.492-2.14,6.71-5.168,6.71-9.253,0-6.644-5.691-10.622-15.206-10.622H350.168v.633l.158.078c3.112,1.146,3.04,5.4,3,8.511l-.01,1.053v26.97l.01.98c.037,3.172.083,7.5-3,8.67l-.153.06v.643h13.25c5.048.02,10.258.026,14.945-2.244,5.312-2.539,8.725-7.541,8.725-12.756,0-6.218-4.284-11.021-11.209-12.722M361.113,79.053c.413-.041,4.576-.482,4.576-.482a8.559,8.559,0,0,1,6.494,1.987,6.4,6.4,0,0,1,2.093,4.865c0,6.836-9.21,7.178-11.054,7.178h-2.109Zm14.973,34.061a11.617,11.617,0,0,1-8.959,2.469s-4.954-.456-6.015-.547V97.815c.439-.018,4.77-.267,4.77-.267,4.059-.226,7.858.939,10.172,3.128a8.2,8.2,0,0,1,2.6,6.213,8.006,8.006,0,0,1-2.567,6.224" transform="translate(-200.934 -42.259)"/>
    <path id="패스_84401" data-name="패스 84401" d="M454.308,73.638H440.45v.633l.166.078c3.1,1.146,3.043,5.431,3,8.553l-.01,1.084v26.986l.01.944c.031,3.169.088,7.51-3,8.618l-.166.06v.643h14.109v-.643l-.171-.06c-3.081-1.17-3.027-5.469-3-8.618l.011-.944V83.985l-.011-.952c-.031-3.177-.085-7.518,3-8.7l.171-.065v-.633Z" transform="translate(-252.74 -42.259)"/>
    <path id="패스_84402" data-name="패스 84402" d="M478.395,83.664c0,8.322,7.363,11.61,13.873,14.53,5.524,2.461,10.748,4.811,10.748,9.8,0,4.689-5.794,7.194-9.978,7.194a24.478,24.478,0,0,1-15.517-5.882l-.581-.506,2.275,9.826.132.046a37.174,37.174,0,0,0,12.9,2.168c10.719,0,19.434-6.763,19.434-15.067,0-7.282-7.355-10.643-13.845-13.6-5.54-2.529-10.779-4.922-10.779-9.294,0-4.624,4.835-6.26,8.984-6.26a16.106,16.106,0,0,1,11.06,4.43l.422.448v-8.9l-.168-.052a35.971,35.971,0,0,0-10.735-1.592c-8.416,0-18.223,3.322-18.223,12.715" transform="translate(-273.679 -40.716)"/>
    <path id="패스_84403" data-name="패스 84403" d="M14.353,8.169H4.585V0H0V20.923H4.585V12.256h9.768v8.667h4.586V0H14.353Z" transform="translate(0 0)" fill="#1c4381"/>
    <path id="패스_84404" data-name="패스 84404" d="M266,1.2a4.716,4.716,0,0,0-1.025,3.257v16.47h4.583V14.243h9.731v6.681h4.6V0h-14.3A4.745,4.745,0,0,0,266,1.2m4.723,2.892h8.567v6.074h-9.731V5.283a1.718,1.718,0,0,1,.171-.933c.218-.273.56-.246.993-.262" transform="translate(-152.052 -0.001)" fill="#1c4381"/>
    <path id="패스_84405" data-name="패스 84405" d="M171.98,0H157.658V20.923h4.588V4.087h8.6c.428.016.776-.01.988.262a1.6,1.6,0,0,1,.179.933v15.64H176.6V4.453A4.682,4.682,0,0,0,175.577,1.2a4.757,4.757,0,0,0-3.6-1.2" transform="translate(-90.468)" fill="#1c4381"/>
    <path id="패스_84406" data-name="패스 84406" d="M118.058,15.638a1.579,1.579,0,0,1-.176.926c-.213.278-.565.254-.99.262h-8.6V0h-4.586V20.924h14.32a4.746,4.746,0,0,0,3.59-1.2,4.715,4.715,0,0,0,1.027-3.255V0h-4.586Z" transform="translate(-59.509 -0.001)" fill="#1c4381"/>
    <path id="패스_84407" data-name="패스 84407" d="M230.566,4.454A4.667,4.667,0,0,0,229.55,1.2,4.736,4.736,0,0,0,225.963,0H211.638V20.924h14.325a4.75,4.75,0,0,0,3.587-1.2,4.66,4.66,0,0,0,1.016-3.255ZM226,15.638a1.709,1.709,0,0,1-.176.926c-.218.278-.566.254-1,.262h-8.605V4.088h8.605c.431.016.778-.01,1,.262a1.748,1.748,0,0,1,.176.933Z" transform="translate(-121.443 -0.001)" fill="#1c4381"/>
    <path id="패스_84408" data-name="패스 84408" d="M59.259,9.152,53.7,0H48.254l8.551,13.192v7.731h4.9V13.192L70.271,0H64.82Z" transform="translate(-27.689 0)" fill="#1c4381"/>
    <rect id="사각형_153744" data-name="사각형 153744" width="4.892" height="20.923" transform="translate(136.434)" fill="#1c4381"/>
  </g>
</svg>
