<svg xmlns="http://www.w3.org/2000/svg" width="1023.4654pt" height="225pt" viewBox="0 0 1023.4654 225"><path fill="#004b8d" d="M993.624 131.882h28.74v-93.19h-28.74V67.44h-29.468V89.6h29.468zM418.616 113.945c.415-2.639.688-5.321.688-8.093a50.87 50.87 0 0 0-.308-5.59h23.7v13.683zm-50.233 18.065c-14.61 0-26.485-11.865-26.485-26.462 0-14.57 11.874-26.44 26.485-26.44 14.592 0 26.44 11.87 26.44 26.44 0 14.597-11.848 26.462-26.44 26.462m74.313-53.917H411.03c-1.91-2.944-4.104-5.697-6.58-8.16h18.856V47.76h-40.42V33.044h-28.762V47.76h-40.397v22.174h18.564c-9.187 9.218-14.875 21.913-14.875 35.918 0 28.109 22.862 50.931 50.988 50.931 16.746 0 31.572-8.137 40.843-20.656h33.448v42.56h28.775V38.692h-28.775zM913.511 202.07v-9.425h108.851v-53.772H884.723v22.196h108.9v9.398h-108.9v53.786h138.742v-22.182zM361.54 167.334h-28.774v57.179h138.706v-22.151H361.54zM631.357 94.362h-15.982v-55.67h-28.753V156.54h-56.645V64.766h38.902V42.597h-67.69v136.09h85.433v45.843h28.753V116.531h15.982v108h28.797V38.691h-28.797zM729.267 167.334h-28.78v57.179H839.15v-22.151H729.267zM766.83 106.12h43.518v72.57h28.73v-140h-28.73v45.265h-33.254c3.05-9.893 4.708-20.867 4.47-33.028V42.23h-92.612v22.182h63.683c0 28.47-22.46 54.946-68.422 66.119l8.662 22.133h.026c27.84-5.057 56.945-20.029 73.93-46.544"/><path fill="#004b8d" d="M917.915 91.886c10.75 16.72 27.323 28.48 47.798 37.508l13.397-20.62c-31.895-13.786-47.529-33.48-47.529-63.754v-4.894H904.254v4.894c0 30.275-15.647 49.968-47.52 63.753l13.38 20.62c20.496-9.028 37.043-20.787 47.801-37.507"/><path fill="#fdbb30" fill-rule="evenodd" d="M0 225h257.821L132.864 0z"/><path fill="#00a94f" fill-rule="evenodd" d="M30.335 225h257.887L163.256 0z"/></svg>