<svg xmlns="http://www.w3.org/2000/svg" xml:space="preserve" width="4402.293" height="500" viewBox="0 0 4402.2929 500"><path d="M0 0c-.662 1.164.27 2.336 1.357 2.336h18.452c1.527 0 1.931-1.445 1.318-2.428l-3.324-5.75c-.535-1.064-1.869-1.023-2.453-.039L12.137-.287c-.885 1.5-2.131 1.533-3.045 0L5.941-5.73c-.443-.827.248-2.043 1.358-2.043h18.447c1.275 0 1.899-1.42 1.383-2.325 0 0-8.461-14.654-9.143-15.832-.685-1.179-2.298-1.119-2.961-.015l-3.232 5.517c-.662 1.174.236 2.539 1.318 2.539h6.875c1.03 0 1.639 1.073 1.049 2.11l-3.019 5.314c-.793 1.348-2.059 1.42-2.889.061 0 0-8.373-14.414-9.016-15.526-.648-1.115-1.961-1.203-2.672.004-.705 1.209-9.248 15.772-9.248 15.772-.728 1.299.295 2.381 1.426 2.381H2.01c1.58 0 2.013-1.377 1.39-2.393L.096-15.9c-.483-.875.291-2 1.363-1.989h6.666c1.025-.011 1.691.92 1.102 1.967z" style="fill:#e6232a;fill-opacity:1;fill-rule:nonzero;stroke:none" transform="matrix(17.16025 0 0 -17.16025 103.88 40.086)"/><path d="M0 0h-4.16v-6.65c0-.825.18-1.411.531-1.768.295-.295.783-.443 1.475-.443h18.789v3.689H0Z" style="fill:#0073be;fill-opacity:1;fill-rule:nonzero;stroke:none" transform="matrix(17.16025 0 0 -17.16025 2286.852 320.28)"/><path d="M334.216 123.515h-5.547v23.002h5.547z" style="fill:#0073be;fill-opacity:1;fill-rule:nonzero;stroke:none;stroke-width:1.33333" transform="translate(-1732.67 -1547.502) scale(12.87019)"/><path d="M0 0h10.305v3.691H-4.189V-13.77c0-.826.16-1.416.498-1.769.314-.293.816-.443 1.502-.443h12.494v3.687H0Z" style="fill:#0073be;fill-opacity:1;fill-rule:nonzero;stroke:none" transform="matrix(17.16025 0 0 -17.16025 2721.89 118.447)"/><path d="M0 0h-6.645v-3.689H0v-13.127h4.16V8.252H0Z" style="fill:#0073be;fill-opacity:1;fill-rule:nonzero;stroke:none" transform="matrix(17.16025 0 0 -17.16025 2962.906 183.77)"/><path d="M471.125 156.94h5.555v-33.424h-5.555z" style="fill:#0073be;fill-opacity:1;fill-rule:nonzero;stroke:none;stroke-width:1.33333" transform="translate(-1732.67 -1547.502) scale(12.87019)"/><path d="M0 0h10.127v11.238H-4.166V7.547H5.938V3.539H-4.166v-9.762c0-.826.17-1.416.504-1.769.318-.293.807-.444 1.482-.444h14.418v3.688H0Z" style="fill:#0073be;fill-opacity:1;fill-rule:nonzero;stroke:none" transform="matrix(17.16025 0 0 -17.16025 4088.142 247.952)"/><path d="M0 0c0 1.939 1.443 3.512 3.609 3.512 2.164 0 3.604-1.573 3.604-3.512 0-1.941-1.44-3.512-3.604-3.512C1.443-3.512 0-1.941 0 0m11.328 0c0 4.1-3.221 7.424-7.719 7.424C-.895 7.424-4.117 4.1-4.117 0c0-4.102 3.222-7.426 7.726-7.426 4.498 0 7.719 3.324 7.719 7.426" style="fill:#0073be;fill-opacity:1;fill-rule:nonzero;stroke:none" transform="matrix(17.16025 0 0 -17.16025 2236.544 156.822)"/><path d="M0 0c2.83-4.459 10.049-5.537 11.199-5.541v3.953C2.994-.672 2.275 5.551 2.275 7.98h-4.546c0-2.429-.719-8.652-8.918-9.568v-3.953C-10.045-5.537-2.822-4.459 0 0" style="fill:#0073be;fill-opacity:1;fill-rule:nonzero;stroke:none" transform="matrix(17.16025 0 0 -17.16025 3300.011 177.133)"/><path d="M374.807 155.325h32.466v-4.914h-32.466z" style="fill:#0073be;fill-opacity:1;fill-rule:nonzero;stroke:none;stroke-width:1.33333" transform="translate(-1732.67 -1547.502) scale(12.87019)"/><path d="M0 0h18.49v3.688H2.18v2.564h15.924v3.572H2.18v2.358h16.31v3.685H-1.975V2.213c0-.826.164-1.414.502-1.768C-1.184.148-.689 0 0 0" style="fill:#0073be;fill-opacity:1;fill-rule:nonzero;stroke:none" transform="matrix(17.16025 0 0 -17.16025 3616.872 314.448)"/><path d="M410.688 155.325h32.47v-4.914h-32.47z" style="fill:#0073be;fill-opacity:1;fill-rule:nonzero;stroke:none;stroke-width:1.33333" transform="translate(-1732.67 -1547.502) scale(12.87019)"/><path d="M0 0h-21.047v-3.625h16.926v-5.121h-16.926v-3.623h16.926v-7.871h-6.315v6.287h-4.121v-6.287h-8.185v-3.623H2.197v3.623H0Z" style="fill:#0073be;fill-opacity:1;fill-rule:nonzero;stroke:none" transform="matrix(17.16025 0 0 -17.16025 1083.69 42.063)"/><path d="M0 0c0 2.537 2.289 4.453 5.715 4.453 3.435 0 5.681-1.916 5.681-4.453 0-2.537-2.246-4.451-5.681-4.451C2.289-4.451 0-2.537 0 0m7.76-7.877c4.603.732 7.744 3.922 7.744 7.877 0 4.516-4.092 8.037-9.789 8.037C.029 8.037-4.107 4.516-4.107 0c0-3.939 3.154-7.129 7.744-7.869v-5.328h-10.41v-3.623H18.17v3.623H7.76Z" style="fill:#0073be;fill-opacity:1;fill-rule:nonzero;stroke:none" transform="matrix(17.16025 0 0 -17.16025 1303.154 162.923)"/><path d="M0 0c-2.658 0-4.58 1.789-4.58 4 0 2.213 1.922 4.006 4.58 4.006 2.662 0 4.584-1.793 4.584-4.006 0-2.211-1.922-4-4.584-4m12.469 11.436H2.096v1.111h9.146v2.855H-7.123v1.114h18.365v6.82h-22.486v-2.852H7.115v-1.115h-18.359v-4.894c0-1.2.754-1.924 2.064-1.924l7.082-.004v-1.111h-10.373v-3.18h5.489C-7.949 7.063-8.51 5.604-8.51 4c0-4.127 3.711-7.35 8.524-7.35C4.83-3.35 8.512-.127 8.512 4c0 1.604-.565 3.063-1.522 4.256h5.479z" style="fill:#0073be;fill-opacity:1;fill-rule:nonzero;stroke:none" transform="matrix(17.16025 0 0 -17.16025 1875.811 442.513)"/></svg>