<svg id="SvgjsSvg1006" xmlns="http://www.w3.org/2000/svg" xmlns:xlink="http://www.w3.org/1999/xlink" viewBox="0 0 3747.04 941.9"><defs><style>.cls-1{fill:url(#무제_그라디언트_2);}.cls-2{fill:#fff;}.cls-3{fill:#e273b2;}.cls-4{fill:url(#무제_그라디언트_201);}.cls-5{fill:url(#무제_그라디언트_223);}.cls-6{fill:url(#무제_그라디언트_201-2);}</style><linearGradient id="무제_그라디언트_2" x1="723.12" y1="765.89" x2="520.2" y2="414.42" gradientUnits="userSpaceOnUse"><stop offset="0" stop-color="#9a266b"/><stop offset="1" stop-color="#dd4d91"/></linearGradient><linearGradient id="무제_그라디언트_201" x1="153.82" y1="559.36" x2="514.64" y2="767.68" gradientUnits="userSpaceOnUse"><stop offset="0.02" stop-color="#db2b8f"/><stop offset="0.13" stop-color="#db2b8f"/><stop offset="1" stop-color="#c21f7c"/></linearGradient><linearGradient id="무제_그라디언트_223" x1="471.37" y1="393.9" x2="338.06" y2="27.66" gradientUnits="userSpaceOnUse"><stop offset="0.02" stop-color="#e470b3"/><stop offset="1" stop-color="#df66ac"/></linearGradient><linearGradient id="무제_그라디언트_201-2" x1="-103.95" y1="340.54" x2="230.8" y2="675.3" xlink:href="#무제_그라디언트_201"/></defs><title>QuantifiedESG_Logo_v3_Mixed</title><polygon class="cls-1" points="414.06 941.9 414.06 795.08 700.76 631.28 700.76 310.41 828.21 236.59 828.21 705.21 414.06 941.9"/><path class="cls-2" d="M414.11,150.87"/><path class="cls-2" d="M414.11,150.87"/><polygon class="cls-3" points="254.81 384.44 382.27 458.37 542.44 366.74 414.06 293.43 254.81 384.44"/><polygon class="cls-4" points="254.81 384.44 382.27 458.37 382.27 776.96 414.06 795.08 414.06 941.9 254.81 850.89 254.81 384.44"/><polygon class="cls-5" points="700.76 310.41 414.06 146.72 127.46 310.41 0 236.59 414.06 0 828.21 236.59 700.76 310.41"/><polygon class="cls-6" points="127.46 310.41 0 236.59 0 706.04 127.46 778.64 127.46 310.41"/><path class="cls-2" d="M1379.69,561.85q-9.3,19.06-21.85,30.69l-4.19,1.86A447.84,447.84,0,0,1,1193.71,507a81.87,81.87,0,0,1-10.23.47q-62.31,0-95.78-39.29t-33.48-111.36q0-74.85,35.57-115.31t101.59-40.45q61.84,0,95.09,38.13t33.24,109.73q0,57.64-21.15,96t-61.15,53.24q65.56,43.23,140.42,58.11ZM1124,440.5q20.44,28.37,63.23,28.36,41.37,0,62.07-27.66T1270,355.42q0-59.06-20.46-86.95t-62.76-27.9q-42.79,0-63,27t-20.22,84.62Q1103.51,412.15,1124,440.5Z"/><path class="cls-2" d="M1550.09,388.89l-.47,34.41q.47,39.52-25.1,61.37T1452,506.53q-46.5,0-70.68-21.62t-23.24-61.61l.46-35.8-1.4-117.17h45.11l-2.33,146q-.47,53,53.93,53,27,0,40.92-13.25t13.48-39.76l-1.86-146h45.1Z"/><path class="cls-2" d="M1788.32,503.27h-45.1l-6-28.83-8.37-25.57-52.07-.46-46.5.46-8.83,23.25-6.51,31.15h-44.17l86.94-232.94h52.08ZM1717.19,414l-33-101.82h-3.26L1643.26,414l36.73.46Z"/><path class="cls-2" d="M2023.77,432.13l1.4,71.14h-48.36L1866.62,339.61h-2.79l-.46,84.62,1.39,79h-40.45l1.86-68.35-1.39-164.59h47.42L1982.39,434h3.72l-1.39-162.27,41.38-2.32Z"/><path class="cls-2" d="M2240.44,274.05l-2.79,35.8-45.1-3.25H2173l-.93,122.74,1.39,73.93h-44.63l1.86-69.74-.93-126.93h-19.06l-46,3.25-3.26-3.72,3.26-35.8h173.42Z"/><path class="cls-2" d="M2318.78,429.34l1.86,73.93H2276l1.86-69.74L2276,270.33h45.1Z"/><path class="cls-2" d="M2423,306.13l-.93,66.95,37.2.47,41.38-1.4,3.25,3.72-3.25,33.95-45.1-.93-34,.46-.46,20,1.86,73.93h-44.64l1.86-69.74-1.86-163.2h142.28l2.79,3.72L2519.73,308l-58.12-2.32Z"/><path class="cls-2" d="M2596.77,429.34l1.86,73.93H2554l1.87-69.74L2554,270.33h45.11Z"/><path class="cls-2" d="M2807.11,466.07l3.26,3.26-3.72,33.94H2657.4l1.86-69.74-1.86-163.2H2808l2.79,3.72L2807.58,308l-59-2.32-46.5.46-.93,60.45,44.64.46,40.45-1.39,2.33,3.71-2.79,34.41L2742,402.38l-41.38.46-.47,26.5.93,38.13,43.25.46Z"/><path class="cls-2" d="M3024.89,296.83q28.59,28.37,28.59,81.37,0,61.85-31.61,94.62t-90.2,32.78q-44.19,0-84.62-2.33l1.86-69.74-1.86-163.2,95.78-1.86Q2996.29,268.47,3024.89,296.83Zm-35.1,153.44q17.65-20.46,17.66-61.84,0-43.24-16.73-63t-51.15-19.76q-28.83,0-47.89,1.86l-1.86,121.81.93,38.13q34.88,3.25,48.36,3.25Q2972.11,470.72,2989.79,450.27Z"/><path class="cls-2" d="M3272.56,462.35l2.79,4.19-3.25,36.73H3095.88l3.26-89.73-3.26-208.77H3273l2.79,4.19-3.72,36.73-70.68-1.86-56.72.46-1.39,87,53.93.93,49.29-1.4,3.25,3.72-3.72,36.73-52.54-1.39-50.68.93-.46,38.59,1.39,54.86,56.72.47Z"/><path class="cls-2" d="M3477.84,216.4l-7.91,43.7-7.44,2.79a135.62,135.62,0,0,0-30.68-16.74,84.82,84.82,0,0,0-30.23-6q-22.78,0-36.26,12.55T3351.83,282q0,16.29,13.49,26.74t42.31,23.94q25.11,12.11,40.68,21.86a92.07,92.07,0,0,1,26.74,25.8q11.16,16.05,11.16,38.36a79.31,79.31,0,0,1-13.26,44.4q-13.24,20.24-37.19,32.08T3381.13,507a192.83,192.83,0,0,1-83.69-20l6-47.43,6-2.79a117.16,117.16,0,0,0,37.9,24.41q20.68,8.15,38.36,8.14,24.16,0,38.59-12.79t14.41-30.45q0-17.67-14-28.6t-42.77-24.41q-24.66-11.61-40-21.15a88.62,88.62,0,0,1-26.27-25.34q-10.93-15.81-10.93-38.13a79.28,79.28,0,0,1,13-44.17q13-20,36.27-31.38t53-11.39Q3442.5,201.52,3477.84,216.4Z"/><path class="cls-2" d="M3747,221.51l-9.77,44.64-5.11.46q-22.78-13.49-41.38-19.29a130,130,0,0,0-39.06-5.82q-46.5,0-69.28,28.13t-22.78,88.58q0,57.65,21.39,83.45t67.88,25.81a127.67,127.67,0,0,0,23-2.09,286.53,286.53,0,0,0,28.59-7.21l1.4-30.22-1.4-46,45.1-3.26-.93,41.85,1.4,68.35q-57.66,18.13-100,18.13-68.34,0-102.29-37.89t-33.94-108.57q0-77.17,38.83-118.1t110.89-40.91Q3706.58,201.52,3747,221.51Z"/><path class="cls-2" d="M1266.38,695h-38.89V803.22h-14.8V695h-38.88V682.19h92.57Z"/><path class="cls-2" d="M1331.76,796.3a40.55,40.55,0,0,1-13.46,6.57,60.12,60.12,0,0,1-17.22,2.42,44.57,44.57,0,0,1-17.65-3.2,31.21,31.21,0,0,1-12.31-9.16,39.12,39.12,0,0,1-7.13-14.26,69.31,69.31,0,0,1-2.32-18.68q0-22.12,10.16-33.71t29.08-11.59A58.08,58.08,0,0,1,1313,716a27.24,27.24,0,0,1,10.88,4.93,26,26,0,0,1,7.85,10.29q3,6.64,3,17.54a82.31,82.31,0,0,1-1.07,12.63h-57.25a51.26,51.26,0,0,0,1.61,13.48,25.86,25.86,0,0,0,5,9.94,21.63,21.63,0,0,0,8.83,6.23,36.05,36.05,0,0,0,13.29,2.16,37.4,37.4,0,0,0,12.13-2.07,26,26,0,0,0,9.09-4.85Zm-30.68-69.5q-10.51,0-16.85,5.36t-7.58,18.32h44.23q0-13.12-5.17-18.41T1301.08,726.8Z"/><path class="cls-2" d="M1416.8,797.51a39.53,39.53,0,0,1-12.66,5.8,58.48,58.48,0,0,1-15.34,2q-10.35,0-17.48-3.2a29.58,29.58,0,0,1-11.68-9.16,38.49,38.49,0,0,1-6.6-14.35,78.11,78.11,0,0,1-2-18.59q0-21.94,10-33.63t28.71-11.67a70,70,0,0,1,14.54,1.3,45.36,45.36,0,0,1,10.79,3.72l-4.1,11.93a39.81,39.81,0,0,0-9.1-3.55,42.69,42.69,0,0,0-10.7-1.29q-25.33,0-25.33,33.19a57.25,57.25,0,0,0,1.34,12.54,30.32,30.32,0,0,0,4.46,10.55,23.16,23.16,0,0,0,8.2,7.34,26,26,0,0,0,12.58,2.77,32.59,32.59,0,0,0,11.5-1.9,33.19,33.19,0,0,0,8.3-4.32Z"/><path class="cls-2" d="M1491.2,803.22V753.94a76.35,76.35,0,0,0-.81-11.84,21.91,21.91,0,0,0-2.94-8.47,13.6,13.6,0,0,0-5.8-5.1,22.29,22.29,0,0,0-9.54-1.73,24.1,24.1,0,0,0-15.16,5.27,23.64,23.64,0,0,0-8.74,13.57v57.58h-14.27v-121h14.27v44.26h.71a35.21,35.21,0,0,1,11.15-8.56q6.51-3.2,16.14-3.2a45.7,45.7,0,0,1,13,1.65,19.23,19.23,0,0,1,9.19,5.79,25.65,25.65,0,0,1,5.35,11.15,77.19,77.19,0,0,1,1.69,17.72v52.22Z"/><path class="cls-2" d="M1586.58,803.22V753.94q0-13.49-4-20.31t-14.72-6.83q-9.45,0-15.6,4.92a26.24,26.24,0,0,0-8.65,12.37v59.13h-14.27V716.77h10l2.67,10.54h.72a32.07,32.07,0,0,1,11.5-9.07,38.75,38.75,0,0,1,17.21-3.55,45,45,0,0,1,12.84,1.65,19.23,19.23,0,0,1,9.19,5.79,27.32,27.32,0,0,1,5.53,11.15,70.06,70.06,0,0,1,1.87,17.72v52.22Z"/><path class="cls-2" d="M1620.63,760q0-21.94,10.08-33.63t29-11.67a43.6,43.6,0,0,1,17.39,3.2,31.54,31.54,0,0,1,12.22,9.17,39,39,0,0,1,7.13,14.35,69.44,69.44,0,0,1,2.32,18.58q0,22-10.07,33.63t-29,11.67a43.43,43.43,0,0,1-17.39-3.2,31.42,31.42,0,0,1-12.22-9.16,39.07,39.07,0,0,1-7.13-14.35A69.46,69.46,0,0,1,1620.63,760Zm14.8,0a58.32,58.32,0,0,0,1.34,12.62,32.58,32.58,0,0,0,4.19,10.55,22.14,22.14,0,0,0,7.49,7.26,21.54,21.54,0,0,0,11.24,2.77q24.25.18,24.26-33.2a59.23,59.23,0,0,0-1.34-12.79,32.77,32.77,0,0,0-4.19-10.55,21.52,21.52,0,0,0-7.49-7.17,22.11,22.11,0,0,0-11.24-2.68Q1635.44,726.62,1635.43,760Z"/><path class="cls-2" d="M1734,782q0,6.06,2.14,8.65a7.4,7.4,0,0,0,6.06,2.59,37.6,37.6,0,0,0,5-.35,29.37,29.37,0,0,0,6.06-1.55l1.61,10.89a30.76,30.76,0,0,1-7.94,2.25,54.29,54.29,0,0,1-8.83.86q-8,0-13.2-4.41t-5.17-15V682.19H1734Z"/><path class="cls-2" d="M1763.41,760q0-21.94,10.07-33.63t29-11.67a43.67,43.67,0,0,1,17.39,3.2,31.5,31.5,0,0,1,12.21,9.17,39.16,39.16,0,0,1,7.14,14.35,69.85,69.85,0,0,1,2.32,18.58q0,22-10.08,33.63t-29,11.67a43.43,43.43,0,0,1-17.39-3.2,31.34,31.34,0,0,1-12.22-9.16,39.24,39.24,0,0,1-7.14-14.35A69.88,69.88,0,0,1,1763.41,760Zm14.8,0a58.32,58.32,0,0,0,1.34,12.62,32.58,32.58,0,0,0,4.19,10.55,22.14,22.14,0,0,0,7.49,7.26,21.51,21.51,0,0,0,11.24,2.77q24.26.18,24.25-33.2a59.24,59.24,0,0,0-1.33-12.79,33,33,0,0,0-4.2-10.55,21.52,21.52,0,0,0-7.49-7.17,22.07,22.07,0,0,0-11.23-2.68Q1778.2,726.62,1778.21,760Z"/><path class="cls-2" d="M1931.12,807.19q0,16.77-9.19,24.73t-27.2,8a92,92,0,0,1-17.21-1.29,52.52,52.52,0,0,1-11.15-3.38l3.75-11.75q4.1,1.54,9.09,2.94a50.28,50.28,0,0,0,13,1.38,47.12,47.12,0,0,0,12.22-1.3,15.87,15.87,0,0,0,7.58-4.32,16.38,16.38,0,0,0,3.93-7.78,52.43,52.43,0,0,0,1.07-11.32v-8.3h-.72a23.74,23.74,0,0,1-9.09,7.69q-5.54,2.68-14.45,2.68-18,0-26.49-10.89t-8.47-33.89q0-22.12,10.88-33.63t32.11-11.5a83.67,83.67,0,0,1,17.39,1.56,100.47,100.47,0,0,1,12.93,3.63ZM1895.27,793q9.09,0,14.26-4.41t7.32-13.75V730.6q-7.14-3.29-18.19-3.29-12.14,0-19.09,8t-7,24.9a66.1,66.1,0,0,0,1.25,13.31,31.49,31.49,0,0,0,3.93,10.37,19.2,19.2,0,0,0,7,6.75A21.16,21.16,0,0,0,1895.27,793Z"/><path class="cls-2" d="M1984.08,772.79l5,16.6h.89l3.94-16.78,17.37-55.84h14.27l-26.4,77.63q-3,8.48-6,16.43a94.06,94.06,0,0,1-6.51,14.17,36.29,36.29,0,0,1-8,10,15.73,15.73,0,0,1-10.35,3.71,27.35,27.35,0,0,1-10.52-1.73l2.5-11.93a12.64,12.64,0,0,0,4.46.87q5,0,9.63-5.1t7.67-17.55l-35.85-86.45h16.4Z"/><path class="cls-2" d="M2034.83,747H2078v12.79h-43.16Z"/><path class="cls-2" d="M2101.09,682.19q3.38-.53,7.58-.78t8.74-.35l8.91-.17c2.92-.06,5.62-.08,8.12-.08q15,0,25.95,4.49a48.17,48.17,0,0,1,18.1,12.54,51.55,51.55,0,0,1,10.62,19.27,83.36,83.36,0,0,1,3.48,24.73,84.31,84.31,0,0,1-3.3,23.6,56.26,56.26,0,0,1-10.44,20.06,51.19,51.19,0,0,1-18.55,14q-11.41,5.28-27.64,5.27c-1.91,0-4.37,0-7.41-.08s-6.15-.17-9.36-.35-6.18-.32-8.92-.43a45.45,45.45,0,0,1-5.88-.52Zm33.71,11.41h-5.09c-1.84,0-3.65.06-5.44.17l-4.9.35c-1.49.11-2.65.23-3.48.34v96.83a27.49,27.49,0,0,0,3.39.26l5.17.17,5.17.17q2.51.09,3.39.09,12.48,0,21-4.15a35.91,35.91,0,0,0,13.56-11.15,44.6,44.6,0,0,0,7.22-16.08,81.26,81.26,0,0,0,2.14-18.76,76.42,76.42,0,0,0-2-17,44,44,0,0,0-6.78-15.48A37,37,0,0,0,2155.22,698Q2147.11,693.6,2134.8,693.6Z"/><path class="cls-2" d="M2256.4,730.08a33.15,33.15,0,0,0-10.17-1.73q-7.67,0-12.12,4.07a17.44,17.44,0,0,0-5.53,10.28v60.52h-14.27V716.77h10l2.67,10.54h.72a26.86,26.86,0,0,1,8.11-9.07q4.72-3.19,12-3.2a45.11,45.11,0,0,1,11.59,1.73Z"/><path class="cls-2" d="M2273.08,690.49a9.58,9.58,0,0,1,9.81-9.68,10.29,10.29,0,0,1,7.31,2.85,9.06,9.06,0,0,1,3,6.83,8.28,8.28,0,0,1-3,6.57,10.86,10.86,0,0,1-7.31,2.59,9.88,9.88,0,0,1-7-2.59A8.63,8.63,0,0,1,2273.08,690.49Zm3,26.28h14.27v86.45h-14.27Z"/><path class="cls-2" d="M2344.87,767.43l5,16.42h.18l4.46-16.77,20-50.31h15.34l-38,88.35h-6.06l-38.71-88.35h16.41Z"/><path class="cls-2" d="M2467,796.3a40.7,40.7,0,0,1-13.47,6.57,60.05,60.05,0,0,1-17.21,2.42,44.59,44.59,0,0,1-17.66-3.2,31.29,31.29,0,0,1-12.31-9.16,39.12,39.12,0,0,1-7.13-14.26,69.31,69.31,0,0,1-2.32-18.68q0-22.12,10.17-33.71t29.07-11.59a58.25,58.25,0,0,1,12.13,1.3,27.3,27.3,0,0,1,10.88,4.93,26.15,26.15,0,0,1,7.85,10.29q3,6.64,3,17.54a83.59,83.59,0,0,1-1.07,12.63h-57.26a51.26,51.26,0,0,0,1.61,13.48,25.86,25.86,0,0,0,5,9.94,21.63,21.63,0,0,0,8.83,6.23,36.13,36.13,0,0,0,13.29,2.16,37.4,37.4,0,0,0,12.13-2.07,26,26,0,0,0,9.09-4.85Zm-30.68-69.5q-10.53,0-16.86,5.36t-7.58,18.32h44.24q0-13.12-5.18-18.41T2436.33,726.8Z"/><path class="cls-2" d="M2547.53,803.22V753.94q0-13.49-4-20.31t-14.71-6.83q-9.46,0-15.61,4.92a26.24,26.24,0,0,0-8.65,12.37v59.13h-14.27V716.77h10l2.67,10.54h.72a32.16,32.16,0,0,1,11.5-9.07,38.75,38.75,0,0,1,17.21-3.55,45.1,45.1,0,0,1,12.85,1.65,19.24,19.24,0,0,1,9.18,5.79,27.19,27.19,0,0,1,5.53,11.15A70.06,70.06,0,0,1,2561.8,751v52.22Z"/><path class="cls-2" d="M2697.89,772.44a16.27,16.27,0,0,0-4.46-11.84,44.65,44.65,0,0,0-11.15-8.13,144.68,144.68,0,0,0-14.53-6.65,79.82,79.82,0,0,1-14.54-7.53,40.3,40.3,0,0,1-11.15-10.89q-4.45-6.48-4.45-16.51,0-14.17,10.16-22.48t28.9-8.3a115.22,115.22,0,0,1,19.79,1.56,54.1,54.1,0,0,1,13.92,4l-4.46,12.79a59.66,59.66,0,0,0-12-3.75,82.66,82.66,0,0,0-17.93-1.78q-11.77,0-17.66,5.1t-5.88,12a15.27,15.27,0,0,0,4.46,11.24,45.46,45.46,0,0,0,11.15,8q6.67,3.56,14.53,7a88.85,88.85,0,0,1,14.54,8,43.26,43.26,0,0,1,11.15,11q4.46,6.4,4.45,15.91a33.28,33.28,0,0,1-2.85,14,29.63,29.63,0,0,1-8.38,10.72,39.24,39.24,0,0,1-13.38,6.91,60.62,60.62,0,0,1-17.84,2.42,102.55,102.55,0,0,1-22.11-2,62.15,62.15,0,0,1-13.56-4.41l5-12.8a58.08,58.08,0,0,0,12.13,4.29,70.72,70.72,0,0,0,18,2.11,51.37,51.37,0,0,0,11.06-1.13,25.35,25.35,0,0,0,8.92-3.63,19.24,19.24,0,0,0,6-6.31A17.4,17.4,0,0,0,2697.89,772.44Z"/><path class="cls-2" d="M2745.3,716.77V766a76.49,76.49,0,0,0,.8,11.85,24.18,24.18,0,0,0,2.76,8.47,12.78,12.78,0,0,0,5.36,5.1,18.76,18.76,0,0,0,8.56,1.73,23.31,23.31,0,0,0,8.56-1.47,22.58,22.58,0,0,0,6.69-4.06,30,30,0,0,0,5.17-6,36.11,36.11,0,0,0,3.65-7.17V716.77h14.27v61.9q0,6.23.45,12.88a81,81,0,0,0,1.52,11.67h-9.81l-3.57-13.66h-.89a35,35,0,0,1-11.06,11.24q-7,4.49-17.66,4.49a43.69,43.69,0,0,1-12.57-1.64,19.32,19.32,0,0,1-9.1-5.79,27.32,27.32,0,0,1-5.53-11.15A70.09,70.09,0,0,1,2731,769V716.77Z"/><path class="cls-2" d="M2865.74,779.7a10.47,10.47,0,0,0-3.21-8.12,27.41,27.41,0,0,0-7.94-4.93q-4.73-2-10.34-3.8a49.23,49.23,0,0,1-10.35-4.67,26.38,26.38,0,0,1-7.93-7.35q-3.21-4.5-3.21-12.1,0-12.45,7.31-18.24t20.33-5.8a66.89,66.89,0,0,1,16.14,1.65,63.3,63.3,0,0,1,11.33,3.89l-3.39,11.41a57.21,57.21,0,0,0-9.9-3.37,50.27,50.27,0,0,0-12.39-1.47q-7.86,0-11.51,2.59t-3.65,9a8.37,8.37,0,0,0,3.21,7,34.19,34.19,0,0,0,7.93,4.5q4.73,2,10.35,3.89a45.21,45.21,0,0,1,10.34,5,28.33,28.33,0,0,1,7.94,7.87q3.21,4.76,3.21,12.54a28.45,28.45,0,0,1-1.87,10.37,21.12,21.12,0,0,1-5.8,8.3,28.56,28.56,0,0,1-9.72,5.45,42.29,42.29,0,0,1-13.64,2,68,68,0,0,1-17.31-1.9,56.28,56.28,0,0,1-12-4.49l4.29-11.76a53.31,53.31,0,0,0,10.7,4.15,47.89,47.89,0,0,0,13.37,1.9q7.66,0,12.67-2.94T2865.74,779.7Z"/><path class="cls-2" d="M2891.57,716.77h13.91V699.65l14.27-4v21.1H2944v12.1h-24.25v47.89q0,9,2.32,12.71c1.54,2.48,4.16,3.72,7.84,3.72a28.13,28.13,0,0,0,7.85-1q3.21-.94,7.14-2.51l3.21,10.55a55.69,55.69,0,0,1-10.53,3.63,52.24,52.24,0,0,1-12.3,1.38q-10.89,0-15.34-6t-4.46-20V728.87h-13.91Z"/><path class="cls-2" d="M2963.82,723.17a52.38,52.38,0,0,1,15.78-5.88,90.8,90.8,0,0,1,18.82-1.9q9.27,0,14.89,2.42a20.56,20.56,0,0,1,8.56,6.31,21.21,21.21,0,0,1,3.93,8.56,45.5,45.5,0,0,1,1,9.33q0,10.38-.54,20.23t-.53,18.67q0,6.4.53,12.11a55.11,55.11,0,0,0,2,10.54h-10.53l-3.74-12.1h-.9a28.64,28.64,0,0,1-4,4.76,26.24,26.24,0,0,1-5.79,4.15,37.24,37.24,0,0,1-7.85,3,38.86,38.86,0,0,1-10.17,1.21,31.74,31.74,0,0,1-10.61-1.73,24.7,24.7,0,0,1-8.47-4.93,22.87,22.87,0,0,1-5.62-7.69,24.29,24.29,0,0,1-2.05-10.2,23.44,23.44,0,0,1,3.21-12.71,22.82,22.82,0,0,1,9-8.12,45.59,45.59,0,0,1,13.92-4.33,114.55,114.55,0,0,1,17.92-1.29h4.91a35.84,35.84,0,0,1,4.9.34,91.06,91.06,0,0,0,.54-9.34q0-9.5-3.93-13.31t-14.27-3.8a52.71,52.71,0,0,0-6.51.44c-2.32.3-4.7.71-7.13,1.25a57.05,57.05,0,0,0-7,2,34.05,34.05,0,0,0-5.79,2.57Zm25.32,69.33a28.19,28.19,0,0,0,8.92-1.3,26.07,26.07,0,0,0,6.78-3.28,21.61,21.61,0,0,0,4.73-4.41,19.37,19.37,0,0,0,2.76-4.67V764.49c-1.67-.11-3.36-.2-5.08-.26s-3.42-.09-5.09-.09a95.27,95.27,0,0,0-10.79.61,34.7,34.7,0,0,0-9.27,2.25,16.16,16.16,0,0,0-6.42,4.49,10.73,10.73,0,0,0-2.41,7.18,12.61,12.61,0,0,0,4.46,9.94A16.74,16.74,0,0,0,2989.14,792.5Z"/><path class="cls-2" d="M3049.09,690.49a9.58,9.58,0,0,1,9.81-9.68,10.29,10.29,0,0,1,7.31,2.85,9.06,9.06,0,0,1,3,6.83,8.28,8.28,0,0,1-3,6.57,10.86,10.86,0,0,1-7.31,2.59,9.91,9.91,0,0,1-7.05-2.59A8.63,8.63,0,0,1,3049.09,690.49Zm3,26.28h14.27v86.45h-14.27Z"/><path class="cls-2" d="M3149.86,803.22V753.94q0-13.49-4-20.31t-14.72-6.83q-9.45,0-15.6,4.92a26.17,26.17,0,0,0-8.65,12.37v59.13h-14.27V716.77h10l2.67,10.54h.71a32.2,32.2,0,0,1,11.51-9.07,38.72,38.72,0,0,1,17.21-3.55,45,45,0,0,1,12.84,1.65,19.23,19.23,0,0,1,9.19,5.79,27.32,27.32,0,0,1,5.53,11.15,70.06,70.06,0,0,1,1.87,17.72v52.22Z"/><path class="cls-2" d="M3186.46,723.17a52.48,52.48,0,0,1,15.78-5.88,90.8,90.8,0,0,1,18.82-1.9q9.27,0,14.89,2.42a20.66,20.66,0,0,1,8.57,6.31,21.33,21.33,0,0,1,3.92,8.56,45.5,45.5,0,0,1,1,9.33q0,10.38-.53,20.23t-.54,18.67q0,6.4.54,12.11a54.36,54.36,0,0,0,2,10.54h-10.53l-3.74-12.1h-.89a28.72,28.72,0,0,1-4,4.76,26.24,26.24,0,0,1-5.79,4.15,37,37,0,0,1-7.85,3,38.75,38.75,0,0,1-10.17,1.21,31.78,31.78,0,0,1-10.61-1.73,24.8,24.8,0,0,1-8.47-4.93,23,23,0,0,1-5.62-7.69,24.29,24.29,0,0,1-2-10.2,23.44,23.44,0,0,1,3.21-12.71,22.78,22.78,0,0,1,9-8.12,45.53,45.53,0,0,1,13.91-4.33,114.55,114.55,0,0,1,17.92-1.29h4.91a35.73,35.73,0,0,1,4.9.34,91.06,91.06,0,0,0,.54-9.34q0-9.5-3.92-13.31t-14.27-3.8a52.46,52.46,0,0,0-6.51.44c-2.32.3-4.7.71-7.14,1.25a56.39,56.39,0,0,0-7,2,33.82,33.82,0,0,0-5.8,2.57Zm25.33,69.33a28.17,28.17,0,0,0,8.91-1.3,26.07,26.07,0,0,0,6.78-3.28,21.61,21.61,0,0,0,4.73-4.41,19.37,19.37,0,0,0,2.76-4.67V764.49c-1.66-.11-3.36-.2-5.08-.26s-3.42-.09-5.08-.09a95,95,0,0,0-10.79.61,34.78,34.78,0,0,0-9.28,2.25,16.31,16.31,0,0,0-6.42,4.49,10.78,10.78,0,0,0-2.41,7.18,12.61,12.61,0,0,0,4.46,9.94A16.75,16.75,0,0,0,3211.79,792.5Z"/><path class="cls-2" d="M3273.37,682.19h14.27v43h.71a27.56,27.56,0,0,1,10.44-7.78,34.22,34.22,0,0,1,13.82-2.77q17.29,0,25.95,10.72t8.65,33.2q0,22.65-11.41,34.41t-32.11,11.75a73.26,73.26,0,0,1-18.1-2.07,48.51,48.51,0,0,1-12.22-4.5Zm36.74,44.61q-8.91,0-14.44,4.84t-8,13.66v43.57a27.46,27.46,0,0,0,8.21,2.85,51.66,51.66,0,0,0,10,.95q12.14,0,19.36-8.3t7.22-25.93a60.82,60.82,0,0,0-1.25-12.62,29.74,29.74,0,0,0-3.92-10,19.09,19.09,0,0,0-17.13-9Z"/><path class="cls-2" d="M3365.74,690.49a9.6,9.6,0,0,1,9.81-9.68,10.32,10.32,0,0,1,7.32,2.85,9.06,9.06,0,0,1,3,6.83,8.28,8.28,0,0,1-3,6.57,10.89,10.89,0,0,1-7.32,2.59,9.87,9.87,0,0,1-7-2.59A8.6,8.6,0,0,1,3365.74,690.49Zm3,26.28H3383v86.45h-14.26Z"/><path class="cls-2" d="M3424,782c0,4,.72,6.92,2.14,8.65a7.43,7.43,0,0,0,6.07,2.59,37.45,37.45,0,0,0,5-.35,29.37,29.37,0,0,0,6.06-1.55l1.61,10.89a30.64,30.64,0,0,1-7.94,2.25,54.29,54.29,0,0,1-8.83.86q-8,0-13.19-4.41t-5.18-15V682.19H3424Z"/><path class="cls-2" d="M3458.54,690.49a9.6,9.6,0,0,1,9.81-9.68,10.29,10.29,0,0,1,7.31,2.85,9.07,9.07,0,0,1,3,6.83,8.29,8.29,0,0,1-3,6.57,10.86,10.86,0,0,1-7.31,2.59,9.87,9.87,0,0,1-7-2.59A8.6,8.6,0,0,1,3458.54,690.49Zm3,26.28h14.27v86.45h-14.27Z"/><path class="cls-2" d="M3492.68,716.77h13.91V699.65l14.27-4v21.1h24.25v12.1h-24.25v47.89q0,9,2.32,12.71t7.85,3.72a28.05,28.05,0,0,0,7.84-1q3.21-.94,7.14-2.51l3.21,10.55a55.69,55.69,0,0,1-10.53,3.63,52.18,52.18,0,0,1-12.3,1.38q-10.89,0-15.34-6t-4.46-20V728.87h-13.91Z"/><path class="cls-2" d="M3595,772.79l5,16.6h.89l3.94-16.78,17.37-55.84h14.27l-26.4,77.63c-2,5.65-4,11.12-6,16.43a94.06,94.06,0,0,1-6.51,14.17,36.29,36.29,0,0,1-8,10,15.73,15.73,0,0,1-10.35,3.71,27.35,27.35,0,0,1-10.52-1.73l2.5-11.93a12.63,12.63,0,0,0,4.45.87q5,0,9.64-5.1t7.67-17.55l-35.85-86.45h16.4Z"/></svg>